<svg width="1283" height="740" viewBox="0 0 1283 740" fill="none" xmlns="http://www.w3.org/2000/svg">
<path d="M0 0H1283V740H0V0Z" fill="#FEFEFE"/>
<path d="M43.9517 576.92V579H34.4717V577.1L39.2717 571.94C39.8317 571.327 40.2384 570.767 40.4917 570.26C40.7584 569.74 40.8917 569.227 40.8917 568.72C40.8917 568.08 40.7051 567.6 40.3317 567.28C39.9717 566.947 39.4384 566.78 38.7317 566.78C37.4651 566.78 36.1917 567.267 34.9117 568.24L34.0517 566.36C34.6117 565.867 35.3251 565.473 36.1917 565.18C37.0717 564.873 37.9517 564.72 38.8317 564.72C40.2451 564.72 41.3651 565.067 42.1917 565.76C43.0184 566.453 43.4317 567.387 43.4317 568.56C43.4317 569.373 43.2584 570.14 42.9117 570.86C42.5651 571.567 41.9784 572.36 41.1517 573.24L37.6917 576.92H43.9517ZM51.0234 579.18C49.3568 579.18 48.0834 578.567 47.2034 577.34C46.3234 576.1 45.8834 574.3 45.8834 571.94C45.8834 569.607 46.3234 567.827 47.2034 566.6C48.0834 565.373 49.3568 564.76 51.0234 564.76C52.6901 564.76 53.9634 565.373 54.8434 566.6C55.7234 567.827 56.1634 569.607 56.1634 571.94C56.1634 574.287 55.7234 576.08 54.8434 577.32C53.9634 578.56 52.6901 579.18 51.0234 579.18ZM51.0234 577.16C51.9301 577.16 52.5901 576.747 53.0034 575.92C53.4168 575.08 53.6234 573.753 53.6234 571.94C53.6234 570.14 53.4168 568.833 53.0034 568.02C52.5901 567.193 51.9301 566.78 51.0234 566.78C50.1168 566.78 49.4568 567.193 49.0434 568.02C48.6301 568.833 48.4234 570.14 48.4234 571.94C48.4234 573.753 48.6301 575.08 49.0434 575.92C49.4568 576.747 50.1168 577.16 51.0234 577.16ZM67.9956 576.92V579H59.2956V576.92H62.3556V567.84L59.9356 569.3L58.9156 567.42L63.0956 564.9H64.9356V576.92H67.9956ZM79.9278 564.9V566.82L73.5278 579H70.7878L77.1678 566.98H70.1078V564.9H79.9278Z" fill="#414FB0"/>
<path d="M43.9517 508.92V511H34.4717V509.1L39.2717 503.94C39.8317 503.327 40.2384 502.767 40.4917 502.26C40.7584 501.74 40.8917 501.227 40.8917 500.72C40.8917 500.08 40.7051 499.6 40.3317 499.28C39.9717 498.947 39.4384 498.78 38.7317 498.78C37.4651 498.78 36.1917 499.267 34.9117 500.24L34.0517 498.36C34.6117 497.867 35.3251 497.473 36.1917 497.18C37.0717 496.873 37.9517 496.72 38.8317 496.72C40.2451 496.72 41.3651 497.067 42.1917 497.76C43.0184 498.453 43.4317 499.387 43.4317 500.56C43.4317 501.373 43.2584 502.14 42.9117 502.86C42.5651 503.567 41.9784 504.36 41.1517 505.24L37.6917 508.92H43.9517ZM51.0234 511.18C49.3568 511.18 48.0834 510.567 47.2034 509.34C46.3234 508.1 45.8834 506.3 45.8834 503.94C45.8834 501.607 46.3234 499.827 47.2034 498.6C48.0834 497.373 49.3568 496.76 51.0234 496.76C52.6901 496.76 53.9634 497.373 54.8434 498.6C55.7234 499.827 56.1634 501.607 56.1634 503.94C56.1634 506.287 55.7234 508.08 54.8434 509.32C53.9634 510.56 52.6901 511.18 51.0234 511.18ZM51.0234 509.16C51.9301 509.16 52.5901 508.747 53.0034 507.92C53.4168 507.08 53.6234 505.753 53.6234 503.94C53.6234 502.14 53.4168 500.833 53.0034 500.02C52.5901 499.193 51.9301 498.78 51.0234 498.78C50.1168 498.78 49.4568 499.193 49.0434 500.02C48.6301 500.833 48.4234 502.14 48.4234 503.94C48.4234 505.753 48.6301 507.08 49.0434 507.92C49.4568 508.747 50.1168 509.16 51.0234 509.16ZM67.9956 508.92V511H59.2956V508.92H62.3556V499.84L59.9356 501.3L58.9156 499.42L63.0956 496.9H64.9356V508.92H67.9956ZM77.7078 503.76C78.5345 503.987 79.1678 504.4 79.6078 505C80.0611 505.6 80.2878 506.333 80.2878 507.2C80.2878 508.44 79.8211 509.413 78.8878 510.12C77.9545 510.813 76.6611 511.16 75.0078 511.16C73.3545 511.16 72.0611 510.813 71.1278 510.12C70.1945 509.413 69.7278 508.44 69.7278 507.2C69.7278 506.333 69.9545 505.6 70.4078 505C70.8611 504.387 71.5011 503.973 72.3278 503.76C71.6211 503.493 71.0678 503.08 70.6678 502.52C70.2678 501.947 70.0678 501.28 70.0678 500.52C70.0678 499.347 70.5078 498.42 71.3878 497.74C72.2678 497.06 73.4745 496.72 75.0078 496.72C76.5411 496.72 77.7478 497.06 78.6278 497.74C79.5078 498.42 79.9478 499.347 79.9478 500.52C79.9478 501.293 79.7478 501.967 79.3478 502.54C78.9478 503.113 78.4011 503.52 77.7078 503.76ZM75.0078 498.74C73.3411 498.74 72.5078 499.42 72.5078 500.78C72.5078 501.46 72.7145 501.98 73.1278 502.34C73.5545 502.687 74.1811 502.86 75.0078 502.86C75.8345 502.86 76.4545 502.687 76.8678 502.34C77.2945 501.98 77.5078 501.46 77.5078 500.78C77.5078 499.42 76.6745 498.74 75.0078 498.74ZM75.0078 509.14C76.9145 509.14 77.8678 508.427 77.8678 507C77.8678 505.573 76.9145 504.86 75.0078 504.86C73.1011 504.86 72.1478 505.573 72.1478 507C72.1478 508.427 73.1011 509.14 75.0078 509.14Z" fill="#414FB0"/>
<path d="M43.9517 440.92V443H34.4717V441.1L39.2717 435.94C39.8317 435.327 40.2384 434.767 40.4917 434.26C40.7584 433.74 40.8917 433.227 40.8917 432.72C40.8917 432.08 40.7051 431.6 40.3317 431.28C39.9717 430.947 39.4384 430.78 38.7317 430.78C37.4651 430.78 36.1917 431.267 34.9117 432.24L34.0517 430.36C34.6117 429.867 35.3251 429.473 36.1917 429.18C37.0717 428.873 37.9517 428.72 38.8317 428.72C40.2451 428.72 41.3651 429.067 42.1917 429.76C43.0184 430.453 43.4317 431.387 43.4317 432.56C43.4317 433.373 43.2584 434.14 42.9117 434.86C42.5651 435.567 41.9784 436.36 41.1517 437.24L37.6917 440.92H43.9517ZM51.0234 443.18C49.3568 443.18 48.0834 442.567 47.2034 441.34C46.3234 440.1 45.8834 438.3 45.8834 435.94C45.8834 433.607 46.3234 431.827 47.2034 430.6C48.0834 429.373 49.3568 428.76 51.0234 428.76C52.6901 428.76 53.9634 429.373 54.8434 430.6C55.7234 431.827 56.1634 433.607 56.1634 435.94C56.1634 438.287 55.7234 440.08 54.8434 441.32C53.9634 442.56 52.6901 443.18 51.0234 443.18ZM51.0234 441.16C51.9301 441.16 52.5901 440.747 53.0034 439.92C53.4168 439.08 53.6234 437.753 53.6234 435.94C53.6234 434.14 53.4168 432.833 53.0034 432.02C52.5901 431.193 51.9301 430.78 51.0234 430.78C50.1168 430.78 49.4568 431.193 49.0434 432.02C48.6301 432.833 48.4234 434.14 48.4234 435.94C48.4234 437.753 48.6301 439.08 49.0434 439.92C49.4568 440.747 50.1168 441.16 51.0234 441.16ZM67.9956 440.92V443H59.2956V440.92H62.3556V431.84L59.9356 433.3L58.9156 431.42L63.0956 428.9H64.9356V440.92H67.9956ZM74.5478 428.72C76.3345 428.72 77.7078 429.327 78.6678 430.54C79.6411 431.74 80.1278 433.46 80.1278 435.7C80.1278 437.247 79.8945 438.587 79.4278 439.72C78.9745 440.84 78.3145 441.7 77.4478 442.3C76.5811 442.887 75.5545 443.18 74.3678 443.18C73.5278 443.18 72.7078 443.04 71.9078 442.76C71.1078 442.467 70.4145 442.06 69.8278 441.54L70.6878 439.66C71.9278 440.633 73.1211 441.12 74.2678 441.12C75.3211 441.12 76.1278 440.68 76.6878 439.8C77.2611 438.92 77.5611 437.647 77.5878 435.98C77.2811 436.58 76.8211 437.06 76.2078 437.42C75.5945 437.767 74.9078 437.94 74.1478 437.94C73.3078 437.94 72.5611 437.753 71.9078 437.38C71.2545 436.993 70.7411 436.46 70.3678 435.78C70.0078 435.087 69.8278 434.3 69.8278 433.42C69.8278 432.513 70.0278 431.707 70.4278 431C70.8411 430.28 71.4011 429.72 72.1078 429.32C72.8278 428.92 73.6411 428.72 74.5478 428.72ZM74.6878 435.9C75.4345 435.9 76.0345 435.667 76.4878 435.2C76.9545 434.72 77.1878 434.1 77.1878 433.34C77.1878 432.567 76.9545 431.947 76.4878 431.48C76.0345 431 75.4345 430.76 74.6878 430.76C73.9545 430.76 73.3678 431 72.9278 431.48C72.4878 431.947 72.2678 432.567 72.2678 433.34C72.2678 434.113 72.4878 434.733 72.9278 435.2C73.3678 435.667 73.9545 435.9 74.6878 435.9Z" fill="#414FB0"/>
<path d="M43.9322 363.92V366H34.4522V364.1L39.2522 358.94C39.8122 358.327 40.2189 357.767 40.4722 357.26C40.7389 356.74 40.8722 356.227 40.8722 355.72C40.8722 355.08 40.6855 354.6 40.3122 354.28C39.9522 353.947 39.4189 353.78 38.7122 353.78C37.4455 353.78 36.1722 354.267 34.8922 355.24L34.0322 353.36C34.5922 352.867 35.3055 352.473 36.1722 352.18C37.0522 351.873 37.9322 351.72 38.8122 351.72C40.2255 351.72 41.3455 352.067 42.1722 352.76C42.9989 353.453 43.4122 354.387 43.4122 355.56C43.4122 356.373 43.2389 357.14 42.8922 357.86C42.5455 358.567 41.9589 359.36 41.1322 360.24L37.6722 363.92H43.9322ZM51.0039 366.18C49.3372 366.18 48.0639 365.567 47.1839 364.34C46.3039 363.1 45.8639 361.3 45.8639 358.94C45.8639 356.607 46.3039 354.827 47.1839 353.6C48.0639 352.373 49.3372 351.76 51.0039 351.76C52.6706 351.76 53.9439 352.373 54.8239 353.6C55.7039 354.827 56.1439 356.607 56.1439 358.94C56.1439 361.287 55.7039 363.08 54.8239 364.32C53.9439 365.56 52.6706 366.18 51.0039 366.18ZM51.0039 364.16C51.9106 364.16 52.5706 363.747 52.9839 362.92C53.3972 362.08 53.6039 360.753 53.6039 358.94C53.6039 357.14 53.3972 355.833 52.9839 355.02C52.5706 354.193 51.9106 353.78 51.0039 353.78C50.0972 353.78 49.4372 354.193 49.0239 355.02C48.6106 355.833 48.4039 357.14 48.4039 358.94C48.4039 360.753 48.6106 362.08 49.0239 362.92C49.4372 363.747 50.0972 364.16 51.0039 364.16ZM67.9361 363.92V366H58.4561V364.1L63.2561 358.94C63.8161 358.327 64.2228 357.767 64.4761 357.26C64.7428 356.74 64.8761 356.227 64.8761 355.72C64.8761 355.08 64.6894 354.6 64.3161 354.28C63.9561 353.947 63.4228 353.78 62.7161 353.78C61.4494 353.78 60.1761 354.267 58.8961 355.24L58.0361 353.36C58.5961 352.867 59.3094 352.473 60.1761 352.18C61.0561 351.873 61.9361 351.72 62.8161 351.72C64.2294 351.72 65.3494 352.067 66.1761 352.76C67.0028 353.453 67.4161 354.387 67.4161 355.56C67.4161 356.373 67.2428 357.14 66.8961 357.86C66.5494 358.567 65.9628 359.36 65.1361 360.24L61.6761 363.92H67.9361ZM75.0078 366.18C73.3411 366.18 72.0678 365.567 71.1878 364.34C70.3078 363.1 69.8678 361.3 69.8678 358.94C69.8678 356.607 70.3078 354.827 71.1878 353.6C72.0678 352.373 73.3411 351.76 75.0078 351.76C76.6745 351.76 77.9478 352.373 78.8278 353.6C79.7078 354.827 80.1478 356.607 80.1478 358.94C80.1478 361.287 79.7078 363.08 78.8278 364.32C77.9478 365.56 76.6745 366.18 75.0078 366.18ZM75.0078 364.16C75.9145 364.16 76.5745 363.747 76.9878 362.92C77.4011 362.08 77.6078 360.753 77.6078 358.94C77.6078 357.14 77.4011 355.833 76.9878 355.02C76.5745 354.193 75.9145 353.78 75.0078 353.78C74.1011 353.78 73.4411 354.193 73.0278 355.02C72.6145 355.833 72.4078 357.14 72.4078 358.94C72.4078 360.753 72.6145 362.08 73.0278 362.92C73.4411 363.747 74.1011 364.16 75.0078 364.16Z" fill="#414FB0"/>
<line x1="1263" y1="620.154" x2="59" y2="620.154" stroke="#ECF0F4"/>
<line x1="151.5" y1="332.5" x2="151.5" y2="692.5" stroke="#ECF0F4" stroke-linecap="round" stroke-dasharray="4 4"/>
<line x1="663.5" y1="291.5" x2="663.5" y2="692.5" stroke="#ECF0F4" stroke-linecap="round" stroke-dasharray="4 4"/>
<line x1="280.363" y1="312.501" x2="279.78" y2="692.501" stroke="#ECF0F4" stroke-linecap="round" stroke-dasharray="4 4"/>
<line x1="791.5" y1="291.5" x2="791.5" y2="692.5" stroke="#ECF0F4" stroke-linecap="round" stroke-dasharray="4 4"/>
<line x1="407.5" y1="312.5" x2="407.5" y2="692.5" stroke="#ECF0F4" stroke-linecap="round" stroke-dasharray="4 4"/>
<line x1="919.5" y1="291.5" x2="919.5" y2="692.5" stroke="#ECF0F4" stroke-linecap="round" stroke-dasharray="4 4"/>
<line x1="535.5" y1="312.5" x2="535.5" y2="692.5" stroke="#ECF0F4" stroke-linecap="round" stroke-dasharray="4 4"/>
<line x1="1047.5" y1="291.5" x2="1047.5" y2="692.5" stroke="#ECF0F4" stroke-linecap="round" stroke-dasharray="4 4"/>
<line x1="1175.5" y1="291.5" x2="1175.5" y2="692.5" stroke="#ECF0F4" stroke-linecap="round" stroke-dasharray="4 4"/>
<path d="M150.028 722.18C150.028 723.233 149.654 724.12 148.908 724.84C148.161 725.547 147.161 725.973 145.908 726.12V728.3H144.508V726.14C143.601 726.087 142.761 725.913 141.988 725.62C141.214 725.313 140.534 724.887 139.948 724.34L140.568 723.08C141.261 723.667 141.961 724.093 142.668 724.36C143.388 724.627 144.174 724.76 145.028 724.76C146.081 724.76 146.901 724.54 147.488 724.1C148.074 723.66 148.368 723.033 148.368 722.22C148.368 721.74 148.214 721.353 147.908 721.06C147.614 720.753 147.234 720.52 146.768 720.36C146.314 720.187 145.694 720.007 144.908 719.82C143.894 719.567 143.074 719.313 142.448 719.06C141.834 718.807 141.308 718.42 140.868 717.9C140.428 717.38 140.208 716.68 140.208 715.8C140.208 715.08 140.388 714.433 140.748 713.86C141.108 713.273 141.608 712.8 142.248 712.44C142.901 712.08 143.648 711.86 144.488 711.78V709.6H145.888V711.78C146.648 711.847 147.374 712.033 148.068 712.34C148.774 712.647 149.374 713.04 149.868 713.52L149.248 714.78C148.074 713.687 146.714 713.14 145.168 713.14C144.154 713.14 143.354 713.373 142.768 713.84C142.181 714.293 141.888 714.927 141.888 715.74C141.888 716.3 142.048 716.747 142.368 717.08C142.701 717.413 143.108 717.673 143.588 717.86C144.068 718.033 144.728 718.227 145.568 718.44C146.541 718.693 147.321 718.933 147.908 719.16C148.494 719.387 148.994 719.747 149.408 720.24C149.821 720.72 150.028 721.367 150.028 722.18ZM157 726.16C155.387 726.16 154.16 725.547 153.32 724.32C152.48 723.093 152.06 721.307 152.06 718.96C152.06 716.6 152.48 714.807 153.32 713.58C154.16 712.353 155.387 711.74 157 711.74C158.613 711.74 159.84 712.353 160.68 713.58C161.52 714.793 161.94 716.58 161.94 718.94C161.94 721.3 161.52 723.093 160.68 724.32C159.84 725.547 158.613 726.16 157 726.16ZM157 724.78C158.12 724.78 158.947 724.307 159.48 723.36C160.013 722.413 160.28 720.94 160.28 718.94C160.28 716.927 160.013 715.46 159.48 714.54C158.96 713.607 158.133 713.14 157 713.14C155.88 713.14 155.053 713.607 154.52 714.54C153.987 715.473 153.72 716.94 153.72 718.94C153.72 720.94 153.987 722.413 154.52 723.36C155.053 724.307 155.88 724.78 157 724.78Z" fill="#414FB0"/>
<path d="M330.338 722.18C330.338 723.233 329.965 724.12 329.218 724.84C328.472 725.547 327.472 725.973 326.218 726.12V728.3H324.818V726.14C323.912 726.087 323.072 725.913 322.298 725.62C321.525 725.313 320.845 724.887 320.258 724.34L320.878 723.08C321.572 723.667 322.272 724.093 322.978 724.36C323.698 724.627 324.485 724.76 325.338 724.76C326.392 724.76 327.212 724.54 327.798 724.1C328.385 723.66 328.678 723.033 328.678 722.22C328.678 721.74 328.525 721.353 328.218 721.06C327.925 720.753 327.545 720.52 327.078 720.36C326.625 720.187 326.005 720.007 325.218 719.82C324.205 719.567 323.385 719.313 322.758 719.06C322.145 718.807 321.618 718.42 321.178 717.9C320.738 717.38 320.518 716.68 320.518 715.8C320.518 715.08 320.698 714.433 321.058 713.86C321.418 713.273 321.918 712.8 322.558 712.44C323.212 712.08 323.958 711.86 324.798 711.78V709.6H326.198V711.78C326.958 711.847 327.685 712.033 328.378 712.34C329.085 712.647 329.685 713.04 330.178 713.52L329.558 714.78C328.385 713.687 327.025 713.14 325.478 713.14C324.465 713.14 323.665 713.373 323.078 713.84C322.492 714.293 322.198 714.927 322.198 715.74C322.198 716.3 322.358 716.747 322.678 717.08C323.012 717.413 323.418 717.673 323.898 717.86C324.378 718.033 325.038 718.227 325.878 718.44C326.852 718.693 327.632 718.933 328.218 719.16C328.805 719.387 329.305 719.747 329.718 720.24C330.132 720.72 330.338 721.367 330.338 722.18ZM341.751 724.62V726H333.911V724.62H337.011V713.94L334.531 715.5L333.771 714.24L337.471 711.9H338.651V724.62H341.751ZM346.603 723.96V726H344.563V723.96H346.603ZM354.473 717.16C355.366 717.16 356.14 717.347 356.793 717.72C357.46 718.093 357.973 718.62 358.333 719.3C358.693 719.967 358.873 720.74 358.873 721.62C358.873 722.513 358.673 723.3 358.273 723.98C357.886 724.66 357.333 725.193 356.613 725.58C355.893 725.953 355.053 726.14 354.093 726.14C353.24 726.14 352.393 725.987 351.553 725.68C350.726 725.36 350.026 724.933 349.453 724.4L350.073 723.14C351.38 724.22 352.72 724.76 354.093 724.76C355.08 724.76 355.853 724.48 356.413 723.92C356.973 723.36 357.253 722.6 357.253 721.64C357.253 720.707 356.973 719.953 356.413 719.38C355.866 718.807 355.133 718.52 354.213 718.52C352.866 718.52 351.793 719.067 350.993 720.16H349.853V711.9H358.313V713.26H351.473V718.28C351.846 717.92 352.286 717.647 352.793 717.46C353.313 717.26 353.873 717.16 354.473 717.16ZM374.925 711.9V726H373.425L373.445 715.08L368.865 723.76H367.705L363.105 715.16L363.125 726H361.605V711.9H362.965L368.305 722.12L373.585 711.9H374.925Z" fill="#414FB0"/>
<path d="M525.62 721.18C525.62 722.233 525.246 723.12 524.5 723.84C523.753 724.547 522.753 724.973 521.5 725.12V727.3H520.1V725.14C519.193 725.087 518.353 724.913 517.58 724.62C516.806 724.313 516.126 723.887 515.54 723.34L516.16 722.08C516.853 722.667 517.553 723.093 518.26 723.36C518.98 723.627 519.766 723.76 520.62 723.76C521.673 723.76 522.493 723.54 523.08 723.1C523.666 722.66 523.96 722.033 523.96 721.22C523.96 720.74 523.806 720.353 523.5 720.06C523.206 719.753 522.826 719.52 522.36 719.36C521.906 719.187 521.286 719.007 520.5 718.82C519.486 718.567 518.666 718.313 518.04 718.06C517.426 717.807 516.9 717.42 516.46 716.9C516.02 716.38 515.8 715.68 515.8 714.8C515.8 714.08 515.98 713.433 516.34 712.86C516.7 712.273 517.2 711.8 517.84 711.44C518.493 711.08 519.24 710.86 520.08 710.78V708.6H521.48V710.78C522.24 710.847 522.966 711.033 523.66 711.34C524.366 711.647 524.966 712.04 525.46 712.52L524.84 713.78C523.666 712.687 522.306 712.14 520.76 712.14C519.746 712.14 518.946 712.373 518.36 712.84C517.773 713.293 517.48 713.927 517.48 714.74C517.48 715.3 517.64 715.747 517.96 716.08C518.293 716.413 518.7 716.673 519.18 716.86C519.66 717.033 520.32 717.227 521.16 717.44C522.133 717.693 522.913 717.933 523.5 718.16C524.086 718.387 524.586 718.747 525 719.24C525.413 719.72 525.62 720.367 525.62 721.18ZM534.532 717.76C535.358 718 535.992 718.413 536.432 719C536.872 719.573 537.092 720.3 537.092 721.18C537.092 722.407 536.672 723.373 535.832 724.08C535.005 724.787 533.878 725.14 532.452 725.14C531.545 725.14 530.672 724.987 529.832 724.68C528.992 724.373 528.285 723.947 527.712 723.4L528.332 722.14C529.612 723.22 530.972 723.76 532.412 723.76C533.412 723.76 534.172 723.54 534.692 723.1C535.212 722.647 535.472 721.987 535.472 721.12C535.472 719.4 534.392 718.54 532.232 718.54H530.612V717.16H531.912C532.952 717.16 533.752 716.933 534.312 716.48C534.872 716.013 535.152 715.347 535.152 714.48C535.152 713.72 534.925 713.14 534.472 712.74C534.018 712.327 533.372 712.12 532.532 712.12C531.172 712.12 529.838 712.66 528.532 713.74L527.912 712.48C528.485 711.933 529.185 711.507 530.012 711.2C530.838 710.893 531.698 710.74 532.592 710.74C533.872 710.74 534.885 711.067 535.632 711.72C536.392 712.36 536.772 713.227 536.772 714.32C536.772 715.133 536.572 715.847 536.172 716.46C535.785 717.06 535.238 717.493 534.532 717.76ZM553.644 710.9V725H552.144L552.164 714.08L547.584 722.76H546.424L541.824 714.16L541.844 725H540.324V710.9H541.684L547.024 721.12L552.304 710.9H553.644Z" fill="#414FB0"/>
<path d="M709.338 722.18C709.338 723.233 708.965 724.12 708.218 724.84C707.472 725.547 706.472 725.973 705.218 726.12V728.3H703.818V726.14C702.912 726.087 702.072 725.913 701.298 725.62C700.525 725.313 699.845 724.887 699.258 724.34L699.878 723.08C700.572 723.667 701.272 724.093 701.978 724.36C702.698 724.627 703.485 724.76 704.338 724.76C705.392 724.76 706.212 724.54 706.798 724.1C707.385 723.66 707.678 723.033 707.678 722.22C707.678 721.74 707.525 721.353 707.218 721.06C706.925 720.753 706.545 720.52 706.078 720.36C705.625 720.187 705.005 720.007 704.218 719.82C703.205 719.567 702.385 719.313 701.758 719.06C701.145 718.807 700.618 718.42 700.178 717.9C699.738 717.38 699.518 716.68 699.518 715.8C699.518 715.08 699.698 714.433 700.058 713.86C700.418 713.273 700.918 712.8 701.558 712.44C702.212 712.08 702.958 711.86 703.798 711.78V709.6H705.198V711.78C705.958 711.847 706.685 712.033 707.378 712.34C708.085 712.647 708.685 713.04 709.178 713.52L708.558 714.78C707.385 713.687 706.025 713.14 704.478 713.14C703.465 713.14 702.665 713.373 702.078 713.84C701.492 714.293 701.198 714.927 701.198 715.74C701.198 716.3 701.358 716.747 701.678 717.08C702.012 717.413 702.418 717.673 702.898 717.86C703.378 718.033 704.038 718.227 704.878 718.44C705.852 718.693 706.632 718.933 707.218 719.16C707.805 719.387 708.305 719.747 708.718 720.24C709.132 720.72 709.338 721.367 709.338 722.18ZM721.591 722.94H719.471V726H717.851V722.94H711.331V721.7L718.131 711.9H719.471V721.58H721.591V722.94ZM717.851 721.58V714.64L713.031 721.58H717.851ZM725.603 723.96V725.4C725.603 725.96 725.509 726.467 725.323 726.92C725.149 727.387 724.843 727.84 724.403 728.28L723.643 727.7C724.163 727.127 724.456 726.56 724.523 726H723.563V723.96H725.603ZM733.473 717.16C734.366 717.16 735.14 717.347 735.793 717.72C736.46 718.093 736.973 718.62 737.333 719.3C737.693 719.967 737.873 720.74 737.873 721.62C737.873 722.513 737.673 723.3 737.273 723.98C736.886 724.66 736.333 725.193 735.613 725.58C734.893 725.953 734.053 726.14 733.093 726.14C732.24 726.14 731.393 725.987 730.553 725.68C729.726 725.36 729.026 724.933 728.453 724.4L729.073 723.14C730.38 724.22 731.72 724.76 733.093 724.76C734.08 724.76 734.853 724.48 735.413 723.92C735.973 723.36 736.253 722.6 736.253 721.64C736.253 720.707 735.973 719.953 735.413 719.38C734.866 718.807 734.133 718.52 733.213 718.52C731.866 718.52 730.793 719.067 729.993 720.16H728.853V711.9H737.313V713.26H730.473V718.28C730.846 717.92 731.286 717.647 731.793 717.46C732.313 717.26 732.873 717.16 733.473 717.16ZM753.925 711.9V726H752.425L752.445 715.08L747.865 723.76H746.705L742.105 715.16L742.125 726H740.605V711.9H741.965L747.305 722.12L752.585 711.9H753.925Z" fill="#414FB0"/>
<path d="M912.629 722.18C912.629 723.233 912.256 724.12 911.509 724.84C910.763 725.547 909.763 725.973 908.509 726.12V728.3H907.109V726.14C906.203 726.087 905.363 725.913 904.589 725.62C903.816 725.313 903.136 724.887 902.549 724.34L903.169 723.08C903.863 723.667 904.563 724.093 905.269 724.36C905.989 724.627 906.776 724.76 907.629 724.76C908.683 724.76 909.503 724.54 910.089 724.1C910.676 723.66 910.969 723.033 910.969 722.22C910.969 721.74 910.816 721.353 910.509 721.06C910.216 720.753 909.836 720.52 909.369 720.36C908.916 720.187 908.296 720.007 907.509 719.82C906.496 719.567 905.676 719.313 905.049 719.06C904.436 718.807 903.909 718.42 903.469 717.9C903.029 717.38 902.809 716.68 902.809 715.8C902.809 715.08 902.989 714.433 903.349 713.86C903.709 713.273 904.209 712.8 904.849 712.44C905.503 712.08 906.249 711.86 907.089 711.78V709.6H908.489V711.78C909.249 711.847 909.976 712.033 910.669 712.34C911.376 712.647 911.976 713.04 912.469 713.52L911.849 714.78C910.676 713.687 909.316 713.14 907.769 713.14C906.756 713.14 905.956 713.373 905.369 713.84C904.783 714.293 904.489 714.927 904.489 715.74C904.489 716.3 904.649 716.747 904.969 717.08C905.303 717.413 905.709 717.673 906.189 717.86C906.669 718.033 907.329 718.227 908.169 718.44C909.143 718.693 909.923 718.933 910.509 719.16C911.096 719.387 911.596 719.747 912.009 720.24C912.423 720.72 912.629 721.367 912.629 722.18ZM920.202 717.14C921.055 717.14 921.815 717.327 922.482 717.7C923.148 718.073 923.668 718.6 924.042 719.28C924.415 719.96 924.602 720.74 924.602 721.62C924.602 722.487 924.408 723.267 924.022 723.96C923.635 724.653 923.095 725.193 922.402 725.58C921.708 725.967 920.928 726.16 920.062 726.16C918.355 726.16 917.035 725.567 916.102 724.38C915.182 723.193 914.722 721.5 914.722 719.3C914.722 717.713 914.935 716.353 915.362 715.22C915.802 714.087 916.428 713.227 917.242 712.64C918.055 712.04 919.028 711.74 920.162 711.74C920.975 711.74 921.768 711.893 922.542 712.2C923.315 712.493 923.995 712.92 924.582 713.48L923.962 714.74C923.295 714.18 922.655 713.773 922.042 713.52C921.442 713.253 920.828 713.12 920.202 713.12C918.988 713.12 918.042 713.66 917.362 714.74C916.695 715.807 916.362 717.32 916.362 719.28V719.58C916.668 718.833 917.162 718.24 917.842 717.8C918.522 717.36 919.308 717.14 920.202 717.14ZM919.982 724.78C920.888 724.78 921.615 724.493 922.162 723.92C922.708 723.347 922.982 722.587 922.982 721.64C922.982 720.707 922.702 719.953 922.142 719.38C921.595 718.807 920.868 718.52 919.962 718.52C919.042 718.52 918.288 718.813 917.702 719.4C917.128 719.973 916.842 720.72 916.842 721.64C916.842 722.573 917.128 723.333 917.702 723.92C918.288 724.493 919.048 724.78 919.982 724.78ZM940.634 711.9V726H939.134L939.154 715.08L934.574 723.76H933.414L928.814 715.16L928.834 726H927.314V711.9H928.674L934.014 722.12L939.294 711.9H940.634Z" fill="#414FB0"/>
<path d="M1157.34 722.18C1157.34 723.233 1156.97 724.12 1156.22 724.84C1155.47 725.547 1154.47 725.973 1153.22 726.12V728.3H1151.82V726.14C1150.91 726.087 1150.07 725.913 1149.3 725.62C1148.53 725.313 1147.85 724.887 1147.26 724.34L1147.88 723.08C1148.57 723.667 1149.27 724.093 1149.98 724.36C1150.7 724.627 1151.49 724.76 1152.34 724.76C1153.39 724.76 1154.21 724.54 1154.8 724.1C1155.39 723.66 1155.68 723.033 1155.68 722.22C1155.68 721.74 1155.53 721.353 1155.22 721.06C1154.93 720.753 1154.55 720.52 1154.08 720.36C1153.63 720.187 1153.01 720.007 1152.22 719.82C1151.21 719.567 1150.39 719.313 1149.76 719.06C1149.15 718.807 1148.62 718.42 1148.18 717.9C1147.74 717.38 1147.52 716.68 1147.52 715.8C1147.52 715.08 1147.7 714.433 1148.06 713.86C1148.42 713.273 1148.92 712.8 1149.56 712.44C1150.21 712.08 1150.96 711.86 1151.8 711.78V709.6H1153.2V711.78C1153.96 711.847 1154.69 712.033 1155.38 712.34C1156.09 712.647 1156.69 713.04 1157.18 713.52L1156.56 714.78C1155.39 713.687 1154.03 713.14 1152.48 713.14C1151.47 713.14 1150.67 713.373 1150.08 713.84C1149.49 714.293 1149.2 714.927 1149.2 715.74C1149.2 716.3 1149.36 716.747 1149.68 717.08C1150.01 717.413 1150.42 717.673 1150.9 717.86C1151.38 718.033 1152.04 718.227 1152.88 718.44C1153.85 718.693 1154.63 718.933 1155.22 719.16C1155.81 719.387 1156.31 719.747 1156.72 720.24C1157.13 720.72 1157.34 721.367 1157.34 722.18ZM1168.97 711.9V713.12L1162.37 726H1160.59L1167.17 713.28H1159.65V711.9H1168.97ZM1173.6 723.96V725.4C1173.6 725.96 1173.51 726.467 1173.32 726.92C1173.15 727.387 1172.84 727.84 1172.4 728.28L1171.64 727.7C1172.16 727.127 1172.46 726.56 1172.52 726H1171.56V723.96H1173.6ZM1181.47 717.16C1182.37 717.16 1183.14 717.347 1183.79 717.72C1184.46 718.093 1184.97 718.62 1185.33 719.3C1185.69 719.967 1185.87 720.74 1185.87 721.62C1185.87 722.513 1185.67 723.3 1185.27 723.98C1184.89 724.66 1184.33 725.193 1183.61 725.58C1182.89 725.953 1182.05 726.14 1181.09 726.14C1180.24 726.14 1179.39 725.987 1178.55 725.68C1177.73 725.36 1177.03 724.933 1176.45 724.4L1177.07 723.14C1178.38 724.22 1179.72 724.76 1181.09 724.76C1182.08 724.76 1182.85 724.48 1183.41 723.92C1183.97 723.36 1184.25 722.6 1184.25 721.64C1184.25 720.707 1183.97 719.953 1183.41 719.38C1182.87 718.807 1182.13 718.52 1181.21 718.52C1179.87 718.52 1178.79 719.067 1177.99 720.16H1176.85V711.9H1185.31V713.26H1178.47V718.28C1178.85 717.92 1179.29 717.647 1179.79 717.46C1180.31 717.26 1180.87 717.16 1181.47 717.16ZM1201.93 711.9V726H1200.43L1200.45 715.08L1195.87 723.76H1194.71L1190.11 715.16L1190.13 726H1188.61V711.9H1189.97L1195.31 722.12L1200.59 711.9H1201.93Z" fill="#414FB0"/>
<rect opacity="0.2" x="791" y="422" width="36" height="640" rx="3" transform="rotate(90 791 422)" fill="#22B0FC"/>
<path d="M918 422C919.657 422 921 423.343 921 425L921 455C921 456.657 919.657 458 918 458L154 458C152.343 458 151 456.657 151 455L151 425C151 423.343 152.343 422 154 422L918 422Z" fill="#5261E5"/>
<rect opacity="0.2" x="1281" y="347" width="36" height="1130" rx="3" transform="rotate(90 1281 347)" fill="#5361E5"/>
<path d="M677 347C678.657 347 680 348.343 680 350L680 380C680 381.657 678.657 383 677 383L154 383C152.343 383 151 381.657 151 380L151 350C151 348.343 152.343 347 154 347L677 347Z" fill="#5261E5"/>
<rect x="151" y="489" width="623" height="36" fill="#5361E5"/>
<rect opacity="0.2" x="774" y="489" width="36" height="623" rx="3" transform="rotate(90 774 489)" fill="#38C976"/>
<path d="M771 489C772.657 489 774 490.343 774 492L774 522C774 523.657 772.657 525 771 525L154 525C152.343 525 151 523.657 151 522L151 492C151 490.343 152.343 489 154 489L771 489Z" fill="#5361E5"/>
<rect opacity="0.2" x="656" y="556" width="35" height="505" rx="3" transform="rotate(90 656 556)" fill="#38C976"/>
<path d="M653 556C654.657 556 656 557.343 656 559L656 588C656 589.657 654.657 591 653 591L154 591C152.343 591 151 589.657 151 588L151 559C151 557.343 152.343 556 154 556L653 556Z" fill="#5361E5"/>
<path d="M190.212 106.324C186.732 106.324 184.092 105.424 182.292 103.624C180.492 101.824 179.592 99.196 179.592 95.74V80.62H184.128V95.992C184.128 98.176 184.644 99.832 185.676 100.96C186.708 102.064 188.22 102.616 190.212 102.616C192.18 102.616 193.68 102.052 194.712 100.924C195.744 99.796 196.26 98.152 196.26 95.992V80.62H200.796V95.74C200.796 99.172 199.896 101.8 198.096 103.624C196.296 105.424 193.668 106.324 190.212 106.324ZM215.966 87.964C218.078 87.964 219.65 88.564 220.682 89.764C221.714 90.964 222.23 92.776 222.23 95.2V106H217.73V95.452C217.73 94.084 217.466 93.088 216.938 92.464C216.434 91.84 215.63 91.528 214.526 91.528C213.23 91.528 212.186 91.936 211.394 92.752C210.626 93.568 210.242 94.66 210.242 96.028V106H205.742V88.396H210.134V91.024C210.734 90.04 211.538 89.284 212.546 88.756C213.554 88.228 214.694 87.964 215.966 87.964ZM226.801 88.396H231.301V106H226.801V88.396ZM231.517 80.224V84.652H226.549V80.224H231.517ZM244.942 102.904C245.47 102.904 246.022 102.868 246.598 102.796L246.382 106.144C245.662 106.216 245.002 106.252 244.402 106.252C241.93 106.252 240.106 105.688 238.93 104.56C237.754 103.408 237.166 101.704 237.166 99.448V91.78H233.782V88.396H237.166V83.14H241.666V88.396H246.31V91.78H241.666V99.376C241.666 101.728 242.758 102.904 244.942 102.904ZM265.484 106.288C263.924 106.288 262.484 106.096 261.164 105.712C259.868 105.328 258.764 104.776 257.852 104.056L259.112 100.924C260.984 102.292 263.132 102.976 265.556 102.976C266.588 102.976 267.368 102.808 267.896 102.472C268.448 102.136 268.724 101.656 268.724 101.032C268.724 100.504 268.532 100.096 268.148 99.808C267.788 99.52 267.128 99.256 266.168 99.016L263.288 98.368C261.656 98.008 260.444 97.42 259.652 96.604C258.86 95.788 258.464 94.732 258.464 93.436C258.464 92.356 258.764 91.408 259.364 90.592C259.988 89.752 260.84 89.104 261.92 88.648C263.024 88.192 264.296 87.964 265.736 87.964C266.984 87.964 268.184 88.156 269.336 88.54C270.512 88.924 271.544 89.464 272.432 90.16L271.172 93.22C269.348 91.9 267.524 91.24 265.7 91.24C264.716 91.24 263.948 91.42 263.396 91.78C262.844 92.14 262.568 92.644 262.568 93.292C262.568 93.772 262.736 94.168 263.072 94.48C263.432 94.792 263.996 95.032 264.764 95.2L267.752 95.884C269.504 96.268 270.788 96.88 271.604 97.72C272.42 98.536 272.828 99.616 272.828 100.96C272.828 102.592 272.168 103.888 270.848 104.848C269.528 105.808 267.74 106.288 265.484 106.288ZM286.701 87.964C288.813 87.964 290.385 88.564 291.417 89.764C292.449 90.964 292.965 92.776 292.965 95.2V106H288.465V95.452C288.465 94.084 288.201 93.088 287.673 92.464C287.169 91.84 286.365 91.528 285.261 91.528C283.965 91.528 282.921 91.936 282.129 92.752C281.361 93.568 280.977 94.66 280.977 96.028V106H276.477V80.62H280.977V90.844C281.577 89.908 282.369 89.2 283.353 88.72C284.361 88.216 285.477 87.964 286.701 87.964ZM297.535 88.396H302.035V106H297.535V88.396ZM302.251 80.224V84.652H297.283V80.224H302.251ZM316.792 87.964C318.304 87.964 319.648 88.348 320.824 89.116C322.024 89.884 322.948 90.976 323.596 92.392C324.268 93.784 324.604 95.392 324.604 97.216C324.604 99.04 324.268 100.636 323.596 102.004C322.948 103.372 322.036 104.428 320.86 105.172C319.684 105.916 318.328 106.288 316.792 106.288C315.544 106.288 314.428 106.024 313.444 105.496C312.46 104.968 311.704 104.236 311.176 103.3V112.48H306.676V88.396H311.104V91.06C311.632 90.076 312.388 89.32 313.372 88.792C314.38 88.24 315.52 87.964 316.792 87.964ZM315.604 102.796C317.02 102.796 318.124 102.316 318.916 101.356C319.708 100.372 320.104 98.992 320.104 97.216C320.104 95.392 319.708 93.976 318.916 92.968C318.124 91.96 317.02 91.456 315.604 91.456C314.164 91.456 313.048 91.948 312.256 92.932C311.488 93.916 311.104 95.32 311.104 97.144C311.104 98.944 311.488 100.336 312.256 101.32C313.048 102.304 314.164 102.796 315.604 102.796ZM349.213 87.964C351.205 87.964 352.693 88.564 353.677 89.764C354.661 90.94 355.153 92.752 355.153 95.2V106H350.653V95.38C350.653 94.036 350.425 93.064 349.969 92.464C349.513 91.84 348.781 91.528 347.773 91.528C346.573 91.528 345.637 91.936 344.965 92.752C344.293 93.568 343.957 94.708 343.957 96.172V106H339.457V95.38C339.457 94.036 339.229 93.064 338.773 92.464C338.341 91.84 337.609 91.528 336.577 91.528C335.401 91.528 334.477 91.936 333.805 92.752C333.133 93.568 332.797 94.708 332.797 96.172V106H328.297V88.396H332.689V90.88C333.217 89.92 333.949 89.2 334.885 88.72C335.821 88.216 336.889 87.964 338.089 87.964C340.753 87.964 342.517 89.068 343.381 91.276C343.933 90.244 344.725 89.44 345.757 88.864C346.789 88.264 347.941 87.964 349.213 87.964ZM375.171 98.008H363.183C363.327 99.64 363.819 100.852 364.659 101.644C365.499 102.436 366.699 102.832 368.259 102.832C370.203 102.832 371.979 102.208 373.587 100.96L374.883 104.056C374.067 104.728 373.035 105.268 371.787 105.676C370.563 106.084 369.327 106.288 368.079 106.288C365.199 106.288 362.919 105.472 361.239 103.84C359.583 102.208 358.755 99.976 358.755 97.144C358.755 95.344 359.115 93.748 359.835 92.356C360.555 90.964 361.563 89.884 362.859 89.116C364.179 88.348 365.667 87.964 367.323 87.964C369.747 87.964 371.655 88.744 373.047 90.304C374.463 91.864 375.171 94.012 375.171 96.748V98.008ZM367.431 91.132C366.231 91.132 365.259 91.516 364.515 92.284C363.795 93.052 363.351 94.156 363.183 95.596H371.319C371.271 94.132 370.911 93.028 370.239 92.284C369.567 91.516 368.631 91.132 367.431 91.132ZM389.076 87.964C391.188 87.964 392.76 88.564 393.792 89.764C394.824 90.964 395.34 92.776 395.34 95.2V106H390.84V95.452C390.84 94.084 390.576 93.088 390.048 92.464C389.544 91.84 388.74 91.528 387.636 91.528C386.34 91.528 385.296 91.936 384.504 92.752C383.736 93.568 383.352 94.66 383.352 96.028V106H378.852V88.396H383.244V91.024C383.844 90.04 384.648 89.284 385.656 88.756C386.664 88.228 387.804 87.964 389.076 87.964ZM408.91 102.904C409.438 102.904 409.99 102.868 410.566 102.796L410.35 106.144C409.63 106.216 408.97 106.252 408.37 106.252C405.898 106.252 404.074 105.688 402.898 104.56C401.722 103.408 401.134 101.704 401.134 99.448V91.78H397.75V88.396H401.134V83.14H405.634V88.396H410.278V91.78H405.634V99.376C405.634 101.728 406.726 102.904 408.91 102.904ZM419.679 106.288C418.119 106.288 416.679 106.096 415.359 105.712C414.063 105.328 412.959 104.776 412.047 104.056L413.307 100.924C415.179 102.292 417.327 102.976 419.751 102.976C420.783 102.976 421.563 102.808 422.091 102.472C422.643 102.136 422.919 101.656 422.919 101.032C422.919 100.504 422.727 100.096 422.343 99.808C421.983 99.52 421.323 99.256 420.363 99.016L417.483 98.368C415.851 98.008 414.639 97.42 413.847 96.604C413.055 95.788 412.659 94.732 412.659 93.436C412.659 92.356 412.959 91.408 413.559 90.592C414.183 89.752 415.035 89.104 416.115 88.648C417.219 88.192 418.491 87.964 419.931 87.964C421.179 87.964 422.379 88.156 423.531 88.54C424.707 88.924 425.739 89.464 426.627 90.16L425.367 93.22C423.543 91.9 421.719 91.24 419.895 91.24C418.911 91.24 418.143 91.42 417.591 91.78C417.039 92.14 416.763 92.644 416.763 93.292C416.763 93.772 416.931 94.168 417.267 94.48C417.627 94.792 418.191 95.032 418.959 95.2L421.947 95.884C423.699 96.268 424.983 96.88 425.799 97.72C426.615 98.536 427.023 99.616 427.023 100.96C427.023 102.592 426.363 103.888 425.043 104.848C423.723 105.808 421.935 106.288 419.679 106.288ZM448.473 106.288C446.673 106.288 445.089 105.916 443.721 105.172C442.377 104.428 441.333 103.36 440.589 101.968C439.845 100.576 439.473 98.956 439.473 97.108C439.473 95.26 439.845 93.652 440.589 92.284C441.333 90.892 442.377 89.824 443.721 89.08C445.089 88.336 446.673 87.964 448.473 87.964C450.273 87.964 451.845 88.336 453.189 89.08C454.557 89.824 455.601 90.892 456.321 92.284C457.065 93.652 457.437 95.26 457.437 97.108C457.437 98.956 457.065 100.576 456.321 101.968C455.601 103.36 454.557 104.428 453.189 105.172C451.845 105.916 450.273 106.288 448.473 106.288ZM448.437 102.796C449.901 102.796 451.017 102.316 451.785 101.356C452.553 100.396 452.937 98.98 452.937 97.108C452.937 95.26 452.553 93.856 451.785 92.896C451.017 91.912 449.913 91.42 448.473 91.42C447.033 91.42 445.917 91.912 445.125 92.896C444.357 93.856 443.973 95.26 443.973 97.108C443.973 98.98 444.357 100.396 445.125 101.356C445.893 102.316 446.997 102.796 448.437 102.796ZM466.771 88.396H471.415V91.78H466.771V106H462.271V91.78H458.887V88.396H462.271C462.271 85.876 462.919 83.98 464.215 82.708C465.535 81.436 467.575 80.728 470.335 80.584L472.099 80.476L472.387 83.824L470.695 83.896C469.279 83.968 468.271 84.292 467.671 84.868C467.071 85.42 466.771 86.32 466.771 87.568V88.396ZM500.499 88.432L492.795 106H488.871L481.239 88.432H485.991L490.959 100.852L496.071 88.432H500.499ZM502.672 88.396H507.172V106H502.672V88.396ZM507.388 80.224V84.652H502.42V80.224H507.388ZM523.405 91.708L520.777 91.96C517.801 92.272 516.313 93.784 516.313 96.496V106H511.813V88.396H516.097V91.492C517.009 89.38 518.893 88.228 521.749 88.036L523.117 87.928L523.405 91.708ZM536.211 102.904C536.739 102.904 537.291 102.868 537.867 102.796L537.651 106.144C536.931 106.216 536.271 106.252 535.671 106.252C533.199 106.252 531.375 105.688 530.199 104.56C529.023 103.408 528.435 101.704 528.435 99.448V91.78H525.051V88.396H528.435V83.14H532.935V88.396H537.579V91.78H532.935V99.376C532.935 101.728 534.027 102.904 536.211 102.904ZM556.664 88.396V106H552.272V103.3C551.72 104.26 550.976 105.004 550.04 105.532C549.104 106.036 548.048 106.288 546.872 106.288C542.552 106.288 540.392 103.864 540.392 99.016V88.396H544.892V99.052C544.892 100.3 545.144 101.224 545.648 101.824C546.152 102.424 546.944 102.724 548.024 102.724C549.272 102.724 550.268 102.316 551.012 101.5C551.78 100.66 552.164 99.556 552.164 98.188V88.396H556.664ZM568.908 87.964C571.38 87.964 573.216 88.564 574.416 89.764C575.616 90.964 576.216 92.812 576.216 95.308V106H571.932V103.3C571.524 104.236 570.876 104.968 569.988 105.496C569.124 106.024 568.116 106.288 566.964 106.288C565.788 106.288 564.72 106.048 563.76 105.568C562.8 105.088 562.044 104.428 561.492 103.588C560.94 102.748 560.664 101.812 560.664 100.78C560.664 99.484 560.988 98.464 561.636 97.72C562.308 96.976 563.388 96.436 564.876 96.1C566.364 95.764 568.416 95.596 571.032 95.596H571.932V94.768C571.932 93.568 571.668 92.704 571.14 92.176C570.636 91.648 569.784 91.384 568.584 91.384C567.648 91.384 566.664 91.552 565.632 91.888C564.624 92.2 563.628 92.644 562.644 93.22L561.384 90.124C562.368 89.5 563.556 88.984 564.948 88.576C566.34 88.168 567.66 87.964 568.908 87.964ZM567.864 103.048C569.064 103.048 570.036 102.652 570.78 101.86C571.548 101.044 571.932 100 571.932 98.728V97.972H571.284C569.676 97.972 568.428 98.044 567.54 98.188C566.652 98.332 566.016 98.584 565.632 98.944C565.248 99.304 565.056 99.796 565.056 100.42C565.056 101.188 565.32 101.824 565.848 102.328C566.376 102.808 567.048 103.048 567.864 103.048ZM580.789 80.62H585.289V106H580.789V80.62ZM611.295 91.708L608.667 91.96C605.691 92.272 604.203 93.784 604.203 96.496V106H599.703V88.396H603.987V91.492C604.899 89.38 606.783 88.228 609.639 88.036L611.007 87.928L611.295 91.708ZM628.577 98.008H616.589C616.733 99.64 617.225 100.852 618.065 101.644C618.905 102.436 620.105 102.832 621.665 102.832C623.609 102.832 625.385 102.208 626.993 100.96L628.289 104.056C627.473 104.728 626.441 105.268 625.193 105.676C623.969 106.084 622.733 106.288 621.485 106.288C618.605 106.288 616.325 105.472 614.645 103.84C612.989 102.208 612.161 99.976 612.161 97.144C612.161 95.344 612.521 93.748 613.241 92.356C613.961 90.964 614.969 89.884 616.265 89.116C617.585 88.348 619.073 87.964 620.729 87.964C623.153 87.964 625.061 88.744 626.453 90.304C627.869 91.864 628.577 94.012 628.577 96.748V98.008ZM620.837 91.132C619.637 91.132 618.665 91.516 617.921 92.284C617.201 93.052 616.757 94.156 616.589 95.596H624.725C624.677 94.132 624.317 93.028 623.645 92.284C622.973 91.516 622.037 91.132 620.837 91.132ZM639.818 87.964C642.29 87.964 644.126 88.564 645.326 89.764C646.526 90.964 647.126 92.812 647.126 95.308V106H642.842V103.3C642.434 104.236 641.786 104.968 640.898 105.496C640.034 106.024 639.026 106.288 637.874 106.288C636.698 106.288 635.63 106.048 634.67 105.568C633.71 105.088 632.954 104.428 632.402 103.588C631.85 102.748 631.574 101.812 631.574 100.78C631.574 99.484 631.898 98.464 632.546 97.72C633.218 96.976 634.298 96.436 635.786 96.1C637.274 95.764 639.326 95.596 641.942 95.596H642.842V94.768C642.842 93.568 642.578 92.704 642.05 92.176C641.546 91.648 640.694 91.384 639.494 91.384C638.558 91.384 637.574 91.552 636.542 91.888C635.534 92.2 634.538 92.644 633.554 93.22L632.294 90.124C633.278 89.5 634.466 88.984 635.858 88.576C637.25 88.168 638.57 87.964 639.818 87.964ZM638.774 103.048C639.974 103.048 640.946 102.652 641.69 101.86C642.458 101.044 642.842 100 642.842 98.728V97.972H642.194C640.586 97.972 639.338 98.044 638.45 98.188C637.562 98.332 636.926 98.584 636.542 98.944C636.158 99.304 635.966 99.796 635.966 100.42C635.966 101.188 636.23 101.824 636.758 102.328C637.286 102.808 637.958 103.048 638.774 103.048ZM651.699 80.62H656.199V106H651.699V80.62ZM660.84 88.396H665.34V106H660.84V88.396ZM665.556 80.224V84.652H660.588V80.224H665.556ZM678.981 102.904C679.509 102.904 680.061 102.868 680.637 102.796L680.421 106.144C679.701 106.216 679.041 106.252 678.441 106.252C675.969 106.252 674.145 105.688 672.969 104.56C671.793 103.408 671.205 101.704 671.205 99.448V91.78H667.821V88.396H671.205V83.14H675.705V88.396H680.349V91.78H675.705V99.376C675.705 101.728 676.797 102.904 678.981 102.904ZM700.327 88.432L689.743 112.48H685.207L688.411 105.316L681.067 88.432H685.819L690.787 100.852L695.899 88.432H700.327ZM718.358 113.02C716.606 110.044 715.37 107.26 714.65 104.668C713.93 102.076 713.57 99.364 713.57 96.532C713.57 93.7 713.93 90.988 714.65 88.396C715.37 85.804 716.606 83.02 718.358 80.044L721.346 81.268C720.17 84.172 719.342 86.812 718.862 89.188C718.406 91.564 718.178 94.012 718.178 96.532C718.178 99.052 718.406 101.5 718.862 103.876C719.342 106.252 720.17 108.892 721.346 111.796L718.358 113.02ZM749.744 80.62L738.44 106H734.66L723.356 80.62H728.144L736.568 100.24L745.028 80.62H749.744ZM773.391 106H768.351L763.995 97.9C763.587 97.132 763.083 96.592 762.483 96.28C761.883 95.968 761.127 95.812 760.215 95.812H756.687V106H752.115V80.62H763.347C766.227 80.62 768.411 81.268 769.899 82.564C771.411 83.836 772.167 85.684 772.167 88.108C772.167 90.052 771.615 91.66 770.511 92.932C769.431 94.18 767.895 94.996 765.903 95.38C767.247 95.74 768.327 96.688 769.143 98.224L773.391 106ZM762.699 92.248C764.451 92.248 765.735 91.924 766.551 91.276C767.367 90.604 767.775 89.584 767.775 88.216C767.775 86.824 767.367 85.816 766.551 85.192C765.735 84.544 764.451 84.22 762.699 84.22H756.651V92.248H762.699ZM775.67 111.796C776.846 108.892 777.662 106.252 778.118 103.876C778.598 101.5 778.838 99.052 778.838 96.532C778.838 94.012 778.598 91.564 778.118 89.188C777.662 86.812 776.846 84.172 775.67 81.268L778.658 80.044C780.41 83.02 781.646 85.804 782.366 88.396C783.086 90.988 783.446 93.7 783.446 96.532C783.446 99.364 783.086 102.076 782.366 104.668C781.646 107.26 780.41 110.044 778.658 113.02L775.67 111.796ZM816.172 80.62V106H811.708V103.156C811.18 104.14 810.412 104.908 809.404 105.46C808.42 106.012 807.292 106.288 806.02 106.288C804.508 106.288 803.152 105.904 801.952 105.136C800.776 104.368 799.852 103.288 799.18 101.896C798.532 100.48 798.208 98.86 798.208 97.036C798.208 95.212 798.532 93.616 799.18 92.248C799.852 90.88 800.776 89.824 801.952 89.08C803.128 88.336 804.484 87.964 806.02 87.964C807.292 87.964 808.42 88.228 809.404 88.756C810.388 89.284 811.144 90.028 811.672 90.988V80.62H816.172ZM807.208 102.796C808.648 102.796 809.752 102.304 810.52 101.32C811.312 100.336 811.708 98.932 811.708 97.108C811.708 95.284 811.312 93.892 810.52 92.932C809.752 91.948 808.66 91.456 807.244 91.456C805.804 91.456 804.688 91.936 803.896 92.896C803.104 93.856 802.708 95.236 802.708 97.036C802.708 98.86 803.104 100.276 803.896 101.284C804.688 102.292 805.792 102.796 807.208 102.796ZM836.245 98.008H824.257C824.401 99.64 824.893 100.852 825.733 101.644C826.573 102.436 827.773 102.832 829.333 102.832C831.277 102.832 833.053 102.208 834.661 100.96L835.957 104.056C835.141 104.728 834.109 105.268 832.861 105.676C831.637 106.084 830.401 106.288 829.153 106.288C826.273 106.288 823.993 105.472 822.313 103.84C820.657 102.208 819.829 99.976 819.829 97.144C819.829 95.344 820.189 93.748 820.909 92.356C821.629 90.964 822.637 89.884 823.933 89.116C825.253 88.348 826.741 87.964 828.397 87.964C830.821 87.964 832.729 88.744 834.121 90.304C835.537 91.864 836.245 94.012 836.245 96.748V98.008ZM828.505 91.132C827.305 91.132 826.333 91.516 825.589 92.284C824.869 93.052 824.425 94.156 824.257 95.596H832.393C832.345 94.132 831.985 93.028 831.313 92.284C830.641 91.516 829.705 91.132 828.505 91.132ZM856.421 88.432L848.717 106H844.793L837.161 88.432H841.913L846.881 100.852L851.993 88.432H856.421ZM858.594 88.396H863.094V106H858.594V88.396ZM863.31 80.224V84.652H858.342V80.224H863.31ZM875.763 106.288C873.915 106.288 872.307 105.916 870.939 105.172C869.595 104.428 868.563 103.372 867.843 102.004C867.123 100.636 866.763 99.04 866.763 97.216C866.763 95.392 867.135 93.784 867.879 92.392C868.647 90.976 869.727 89.884 871.119 89.116C872.511 88.348 874.119 87.964 875.943 87.964C877.191 87.964 878.403 88.168 879.579 88.576C880.779 88.96 881.739 89.488 882.459 90.16L881.163 93.328C880.419 92.728 879.627 92.272 878.787 91.96C877.971 91.648 877.155 91.492 876.339 91.492C874.779 91.492 873.567 91.984 872.703 92.968C871.839 93.928 871.407 95.32 871.407 97.144C871.407 98.944 871.839 100.336 872.703 101.32C873.567 102.28 874.779 102.76 876.339 102.76C877.155 102.76 877.971 102.604 878.787 102.292C879.627 101.98 880.419 101.524 881.163 100.924L882.459 104.056C881.691 104.752 880.707 105.304 879.507 105.712C878.307 106.096 877.059 106.288 875.763 106.288ZM900.757 98.008H888.769C888.913 99.64 889.405 100.852 890.245 101.644C891.085 102.436 892.285 102.832 893.845 102.832C895.789 102.832 897.565 102.208 899.173 100.96L900.469 104.056C899.653 104.728 898.621 105.268 897.373 105.676C896.149 106.084 894.913 106.288 893.665 106.288C890.785 106.288 888.505 105.472 886.825 103.84C885.169 102.208 884.341 99.976 884.341 97.144C884.341 95.344 884.701 93.748 885.421 92.356C886.141 90.964 887.149 89.884 888.445 89.116C889.765 88.348 891.253 87.964 892.909 87.964C895.333 87.964 897.241 88.744 898.633 90.304C900.049 91.864 900.757 94.012 900.757 96.748V98.008ZM893.017 91.132C891.817 91.132 890.845 91.516 890.101 92.284C889.381 93.052 888.937 94.156 888.769 95.596H896.905C896.857 94.132 896.497 93.028 895.825 92.284C895.153 91.516 894.217 91.132 893.017 91.132ZM910.918 106.288C909.358 106.288 907.918 106.096 906.598 105.712C905.302 105.328 904.198 104.776 903.286 104.056L904.546 100.924C906.418 102.292 908.566 102.976 910.99 102.976C912.022 102.976 912.802 102.808 913.33 102.472C913.882 102.136 914.158 101.656 914.158 101.032C914.158 100.504 913.966 100.096 913.582 99.808C913.222 99.52 912.562 99.256 911.602 99.016L908.722 98.368C907.09 98.008 905.878 97.42 905.086 96.604C904.294 95.788 903.898 94.732 903.898 93.436C903.898 92.356 904.198 91.408 904.798 90.592C905.422 89.752 906.274 89.104 907.354 88.648C908.458 88.192 909.73 87.964 911.17 87.964C912.418 87.964 913.618 88.156 914.77 88.54C915.946 88.924 916.978 89.464 917.866 90.16L916.606 93.22C914.782 91.9 912.958 91.24 911.134 91.24C910.15 91.24 909.382 91.42 908.83 91.78C908.278 92.14 908.002 92.644 908.002 93.292C908.002 93.772 908.17 94.168 908.506 94.48C908.866 94.792 909.43 95.032 910.198 95.2L913.186 95.884C914.938 96.268 916.222 96.88 917.038 97.72C917.854 98.536 918.262 99.616 918.262 100.96C918.262 102.592 917.602 103.888 916.282 104.848C914.962 105.808 913.174 106.288 910.918 106.288ZM959.836 88.396L952.924 106H949L944.68 94.66L940.468 106H936.58L929.632 88.396H934.24L938.74 100.636L943.24 88.396H946.48L950.98 100.708L955.444 88.396H959.836ZM970.263 106.288C968.463 106.288 966.879 105.916 965.511 105.172C964.167 104.428 963.123 103.36 962.379 101.968C961.635 100.576 961.263 98.956 961.263 97.108C961.263 95.26 961.635 93.652 962.379 92.284C963.123 90.892 964.167 89.824 965.511 89.08C966.879 88.336 968.463 87.964 970.263 87.964C972.063 87.964 973.635 88.336 974.979 89.08C976.347 89.824 977.391 90.892 978.111 92.284C978.855 93.652 979.227 95.26 979.227 97.108C979.227 98.956 978.855 100.576 978.111 101.968C977.391 103.36 976.347 104.428 974.979 105.172C973.635 105.916 972.063 106.288 970.263 106.288ZM970.227 102.796C971.691 102.796 972.807 102.316 973.575 101.356C974.343 100.396 974.727 98.98 974.727 97.108C974.727 95.26 974.343 93.856 973.575 92.896C972.807 91.912 971.703 91.42 970.263 91.42C968.823 91.42 967.707 91.912 966.915 92.896C966.147 93.856 965.763 95.26 965.763 97.108C965.763 98.98 966.147 100.396 966.915 101.356C967.683 102.316 968.787 102.796 970.227 102.796ZM994.534 91.708L991.906 91.96C988.93 92.272 987.442 93.784 987.442 96.496V106H982.942V88.396H987.226V91.492C988.138 89.38 990.022 88.228 992.878 88.036L994.246 87.928L994.534 91.708ZM996.723 80.62H1001.22V106H996.723V80.62ZM1022.86 80.62V106H1018.39V103.156C1017.86 104.14 1017.1 104.908 1016.09 105.46C1015.1 106.012 1013.98 106.288 1012.7 106.288C1011.19 106.288 1009.84 105.904 1008.64 105.136C1007.46 104.368 1006.54 103.288 1005.86 101.896C1005.22 100.48 1004.89 98.86 1004.89 97.036C1004.89 95.212 1005.22 93.616 1005.86 92.248C1006.54 90.88 1007.46 89.824 1008.64 89.08C1009.81 88.336 1011.17 87.964 1012.7 87.964C1013.98 87.964 1015.1 88.228 1016.09 88.756C1017.07 89.284 1017.83 90.028 1018.36 90.988V80.62H1022.86ZM1013.89 102.796C1015.33 102.796 1016.44 102.304 1017.2 101.32C1018 100.336 1018.39 98.932 1018.39 97.108C1018.39 95.284 1018 93.892 1017.2 92.932C1016.44 91.948 1015.34 91.456 1013.93 91.456C1012.49 91.456 1011.37 91.936 1010.58 92.896C1009.79 93.856 1009.39 95.236 1009.39 97.036C1009.39 98.86 1009.79 100.276 1010.58 101.284C1011.37 102.292 1012.48 102.796 1013.89 102.796ZM1055.64 88.396L1048.72 106H1044.8L1040.48 94.66L1036.27 106H1032.38L1025.43 88.396H1030.04L1034.54 100.636L1039.04 88.396H1042.28L1046.78 100.708L1051.24 88.396H1055.64ZM1058.32 88.396H1062.82V106H1058.32V88.396ZM1063.03 80.224V84.652H1058.06V80.224H1063.03ZM1084.45 80.62V106H1079.99V103.156C1079.46 104.14 1078.69 104.908 1077.68 105.46C1076.7 106.012 1075.57 106.288 1074.3 106.288C1072.79 106.288 1071.43 105.904 1070.23 105.136C1069.05 104.368 1068.13 103.288 1067.46 101.896C1066.81 100.48 1066.49 98.86 1066.49 97.036C1066.49 95.212 1066.81 93.616 1067.46 92.248C1068.13 90.88 1069.05 89.824 1070.23 89.08C1071.41 88.336 1072.76 87.964 1074.3 87.964C1075.57 87.964 1076.7 88.228 1077.68 88.756C1078.67 89.284 1079.42 90.028 1079.95 90.988V80.62H1084.45ZM1075.49 102.796C1076.93 102.796 1078.03 102.304 1078.8 101.32C1079.59 100.336 1079.99 98.932 1079.99 97.108C1079.99 95.284 1079.59 93.892 1078.8 92.932C1078.03 91.948 1076.94 91.456 1075.52 91.456C1074.08 91.456 1072.97 91.936 1072.17 92.896C1071.38 93.856 1070.99 95.236 1070.99 97.036C1070.99 98.86 1071.38 100.276 1072.17 101.284C1072.97 102.292 1074.07 102.796 1075.49 102.796ZM1104.52 98.008H1092.53C1092.68 99.64 1093.17 100.852 1094.01 101.644C1094.85 102.436 1096.05 102.832 1097.61 102.832C1099.55 102.832 1101.33 102.208 1102.94 100.96L1104.23 104.056C1103.42 104.728 1102.39 105.268 1101.14 105.676C1099.91 106.084 1098.68 106.288 1097.43 106.288C1094.55 106.288 1092.27 105.472 1090.59 103.84C1088.93 102.208 1088.11 99.976 1088.11 97.144C1088.11 95.344 1088.47 93.748 1089.19 92.356C1089.91 90.964 1090.91 89.884 1092.21 89.116C1093.53 88.348 1095.02 87.964 1096.67 87.964C1099.1 87.964 1101.01 88.744 1102.4 90.304C1103.81 91.864 1104.52 94.012 1104.52 96.748V98.008ZM1096.78 91.132C1095.58 91.132 1094.61 91.516 1093.87 92.284C1093.15 93.052 1092.7 94.156 1092.53 95.596H1100.67C1100.62 94.132 1100.26 93.028 1099.59 92.284C1098.92 91.516 1097.98 91.132 1096.78 91.132Z" fill="#414FB0"/>
</svg>
