<svg width="22" height="23" viewBox="0 0 22 23" fill="none" xmlns="http://www.w3.org/2000/svg">
<path fill-rule="evenodd" clip-rule="evenodd" d="M19.166 22.729H2.82568C2.07833 22.7282 1.36152 22.4317 0.832031 21.9043C0.302539 21.3769 0.00369808 20.6609 0 19.9136V3.56689C0.00369564 2.81936 0.302596 2.10343 0.832031 1.57568C1.36147 1.04793 2.07814 0.751311 2.82568 0.75H19.166C19.9137 0.750786 20.6306 1.04733 21.1602 1.5752C21.6897 2.10306 21.9885 2.8192 21.9917 3.56689V19.9136C21.9885 20.6611 21.6893 21.3772 21.1597 21.9048C20.6301 22.4323 19.9135 22.7287 19.166 22.729V22.729ZM4.36572 10.1626H2.09961V19.7627C2.10067 19.9938 2.19363 20.2154 2.35742 20.3784C2.52121 20.5415 2.74252 20.6328 2.97363 20.6328H19.0337C19.2651 20.6333 19.4873 20.542 19.6514 20.3789C19.8154 20.2158 19.9079 19.9941 19.9087 19.7627V10.1626H17.626C17.7539 10.6743 17.8207 11.1997 17.8257 11.7271C17.8294 12.6916 17.6285 13.6456 17.2363 14.5269C16.8441 15.4081 16.2694 16.196 15.5503 16.8389C14.8312 17.4817 13.984 17.965 13.0645 18.2563C12.145 18.5477 11.1744 18.6407 10.2163 18.5293C9.2582 18.4179 8.3345 18.1049 7.50635 17.6104C6.67819 17.1158 5.96411 16.4513 5.41162 15.6606C4.85913 14.87 4.48089 13.9711 4.30127 13.0234C4.12165 12.0757 4.14478 11.1006 4.36963 10.1626H4.36572ZM10.9927 7.02881C11.9229 7.03039 12.8318 7.30778 13.6045 7.82568C14.3772 8.34359 14.9791 9.07867 15.334 9.93848C15.6889 10.7983 15.781 11.7441 15.5986 12.6562C15.4163 13.5684 14.9673 14.4057 14.3091 15.063C13.6509 15.7202 12.8128 16.1676 11.9004 16.3486C10.988 16.5296 10.0424 16.4363 9.18311 16.0801C8.32383 15.7239 7.58951 15.1211 7.07275 14.3477C6.55599 13.5742 6.27998 12.665 6.27979 11.7349C6.28018 11.1161 6.40238 10.5036 6.63965 9.93213C6.87691 9.3607 7.22462 8.84134 7.6626 8.4043C8.10057 7.96725 8.62045 7.62082 9.19238 7.38477C9.76432 7.14872 10.3769 7.02789 10.9956 7.02881H10.9927ZM18.5366 3.36475H16.543C16.3217 3.36553 16.1092 3.45396 15.9526 3.61035C15.7961 3.76675 15.7081 3.9784 15.707 4.19971V6.19189C15.7081 6.41283 15.7964 6.62403 15.9531 6.77979C16.1098 6.93554 16.322 7.02322 16.543 7.02295H18.5366C18.7574 7.02295 18.9695 6.93551 19.126 6.77979C19.2825 6.62406 19.3705 6.41266 19.3716 6.19189V4.19971C19.3711 3.97884 19.2837 3.76739 19.1279 3.61084C18.9721 3.45429 18.7604 3.36535 18.5396 3.36377L18.5366 3.36475Z" fill="white"/>
</svg>
