<svg width="24" height="20" viewBox="0 0 24 20" fill="none" xmlns="http://www.w3.org/2000/svg">
<path d="M2.1792 1.43077C3.33376 2.91095 4.79863 4.11904 6.47217 4.96946C8.14571 5.81988 9.98653 6.29171 11.8628 6.35167C11.8628 6.35167 11.3282 2.16975 14.9292 0.889752C14.9292 0.889752 17.9926 -0.38929 20.0386 2.02171C20.0386 2.02171 22.4215 1.62775 22.9565 0.889752C22.8557 1.42016 22.6419 1.92296 22.3315 2.36473C22.0212 2.8065 21.6206 3.1771 21.1558 3.45176C22.0476 3.43956 22.9266 3.23705 23.7339 2.85777C23.1129 3.68088 22.388 4.42028 21.5776 5.05772C21.5665 5.06367 21.5546 5.0684 21.5425 5.07176C20.9135 5.31776 22.2266 9.59873 18.2886 14.6717C16.1376 17.3036 13.0836 19.0407 9.72217 19.5447C8.17551 19.869 6.57808 19.8613 5.03467 19.5218C3.49125 19.1824 2.03691 18.519 0.769043 17.5757C3.22175 17.7219 5.6452 16.9697 7.5835 15.4597C7.5835 15.4597 4.08337 15.1598 3.25537 12.2118C3.25537 12.2118 4.86068 12.2117 5.20068 12.1627C5.20068 12.1627 1.45351 10.8827 1.49951 7.26268C2.12009 7.55014 2.78928 7.71716 3.47217 7.75474C2.55893 7.01253 1.93073 5.97688 1.69482 4.82396C1.45892 3.67103 1.6309 2.47204 2.1792 1.43077V1.43077Z" fill="white"/>
</svg>
