<svg width="84" height="85" viewBox="0 0 84 85" fill="none" xmlns="http://www.w3.org/2000/svg">
<path d="M35.9245 31.8039L31.1698 21.4492C20.7094 42.37 10.3547 63.185 0 84.1058C3.06415 84.1058 5.81132 84.2114 8.55848 84.1058C9.08679 84.1058 9.93207 83.5775 10.249 83.0492C12.3623 78.9284 14.3698 74.8077 16.483 70.6869C22.8226 57.902 29.2679 45.2228 35.6075 32.4379C35.6075 32.1209 35.8188 32.0152 35.9245 31.8039Z" fill="white"/>
<path d="M55.4715 74.8078C54.8376 74.8078 54.3093 74.8078 53.781 74.8078C43.9546 74.8078 34.1282 74.7021 24.3017 74.7021C23.5621 74.7021 22.3999 75.2304 22.0829 75.8644C20.7093 78.5059 19.6527 81.1474 18.3848 84.3172C32.2263 84.3172 45.9621 84.3172 59.8036 84.3172L55.4715 74.8078Z" fill="white"/>
<path d="M31.6982 19.9698L41.8416 0L84.0001 83.8943L60.8605 83.683L31.6982 19.9698Z" fill="white"/>
</svg>
